<svg width="1em" height="1em" viewBox="0 0 24 24" xmlns="http://www.w3.org/2000/svg" class="w-6 h-6 pointer-events-none"><path d="M8.084 3.217a35.447 35.447 0 017.05-.078l.782.078.279.031c1.089.121 1.885.372 2.606.828a4.516 4.516 0 011.664 1.86c.336.69.5 1.423.53 2.361l.005.321v3.975a4.493 4.493 0 01-3.545 4.392l-.207.04-2.089.346-2.86 2.992-.147.135c-.986.789-2.399.623-3.205-.324-.532-.625-.616-1.34-.51-2.29l.029-.224.038-.254.033-.187-1.332-.189a5.011 5.011 0 01-1.677-.55l-.253-.146-.243-.16a4.777 4.777 0 01-1.491-1.721 4.935 4.935 0 01-.532-1.972l-.009-.3V8.618c0-1.096.162-1.915.535-2.683.375-.77.94-1.4 1.664-1.859.649-.41 1.359-.655 2.288-.788l.318-.04.28-.031zm7.666 1.491a33.948 33.948 0 00-6.752-.075l-.748.075-.28.031c-.915.102-1.481.297-1.97.606a3.016 3.016 0 00-1.116 1.247c-.228.468-.357.989-.38 1.76l-.004.266v3.563c0 .577.134 1.116.375 1.587.242.471.592.874 1.024 1.18.37.263.801.453 1.276.554l.242.043 1.98.283c.339.048.457.096.575.175.119.078.262.187.27.386l-.002.024-.013.08-.164.741-.064.333c-.111.63-.167 1.332.09 1.634.263.309.7.39 1.037.187l.089-.062 2.998-3.135.13-.101.092-.063.077-.04.08-.03.035-.01.087-.02L17 15.545a2.993 2.993 0 002.495-2.77l.005-.182V8.618c0-.921-.13-1.506-.384-2.026A3.016 3.016 0 0018 5.345c-.44-.278-.943-.464-1.706-.572l-.265-.034-.279-.03zm-.55 6.294l.093.005c.398.044.707.36.707.746 0 .38-.301.693-.691.743l-.109.007H8.8l-.093-.005c-.398-.044-.707-.36-.707-.745 0-.38.301-.694.691-.744l.109-.007h6.4zm0-3.5l.093.004c.398.044.707.36.707.746 0 .38-.301.693-.691.743l-.109.007H8.8l-.093-.005C8.309 8.953 8 8.637 8 8.252c0-.38.301-.694.691-.744l.109-.007h6.4z" fill="#ffffff" fill-rule="evenodd"></path></svg>