<svg width="1em" height="1em" viewBox="0 0 24 24" xmlns="http://www.w3.org/2000/svg" class="w-6 h-6 pointer-events-none"><path d="M10.981 4.973a2.84 2.84 0 00.133 3.872l.274.276-.211.012a8.815 8.815 0 00-.308.027c-3.268.344-5.723 3.001-7.528 8.121l-.156.452-.097.295c-.62 1.898 2.22 2.833 2.848.937l.095-.29.055-.148.093-.233c.884-2.077 2.828-3.313 5.068-3.582l.097-.01-.23.231a2.84 2.84 0 000 4.014 2.835 2.835 0 004.01 0l5.045-5.049c.54-.54.832-1.263.831-2.012a2.832 2.832 0 00-.83-2.006L15.124 4.83a2.835 2.835 0 00-4.011 0l-.133.142zM4.676 18.017l-.068.187.164-.473c1.627-4.592 3.711-6.812 6.254-7.08.255-.026.51-.04.767-.04h3.2L13.75 9.366l-1.576-1.582a1.339 1.339 0 011.89-1.893l5.045 5.048c.262.262.393.606.392.95 0 .342-.13.686-.392.948l-5.044 5.048a1.337 1.337 0 11-1.891-1.892l2.822-2.828h-2.992c-3.272 0-6.18 1.822-7.328 4.85z" fill="#ffffff" fill-rule="evenodd"></path></svg>