<svg xmlns="http://www.w3.org/2000/svg" xmlns:xlink="http://www.w3.org/1999/xlink"  fill="#DC7633"
    width="200" zoomAndPan="magnify" viewBox="0 0 375 374.999991" height="200">
    <defs>&lt; path  d="M 8.917969 7.773438 L 367.417969 7.773438 L 367.417969 366.273438 L 8.917969
      366.273438 Z M 8.917969 7.773438 " /&gt; </defs>
    <g>
      <path 
        d="M 344.105469 366.273438 L 32.230469 366.273438 C 19.386719 366.273438 8.917969 355.808594 8.917969 342.960938 L 8.917969 31.085938 C 8.917969 18.242188 19.386719 7.773438 32.230469 7.773438 L 344.105469 7.773438 C 356.949219 7.773438 367.417969 18.242188 367.417969 31.085938 L 367.417969 342.960938 C 367.417969 355.808594 356.949219 366.273438 344.105469 366.273438 "
        fill-opacity="1" fill-rule="nonzero" fill="#000000" />
    </g>
    <g  transform="translate(90,80) "> <svg xmlns="http://www.w3.org/2000/svg" width="200" height="200"
        viewBox="0 0 300 300" version="1.1" >
        <path
          d="M178.57 127.15 290.27 0h-26.46l-97.03 110.38L89.34 0H0l117.13 166.93L0 300.25h26.46l102.4-116.59 81.8 116.59h89.34M36.01 19.54H76.66l187.13 262.13h-40.66"
           fill="#ffffff" />
      </svg> </g>
  </svg>